<?xml version="1.0" encoding="UTF-8"?>
<svg id="Layer_2" data-name="Layer 2" xmlns="http://www.w3.org/2000/svg" xmlns:xlink="http://www.w3.org/1999/xlink" viewBox="0 0 693.22 696.45">
  <defs>
    <style>
      .cls-1 {
        fill: url(#linear-gradient-8);
      }

      .cls-1, .cls-2, .cls-3, .cls-4, .cls-5, .cls-6, .cls-7, .cls-8, .cls-9, .cls-10, .cls-11, .cls-12, .cls-13, .cls-14, .cls-15, .cls-16, .cls-17, .cls-18, .cls-19, .cls-20 {
        stroke: #fff;
        stroke-miterlimit: 10;
        stroke-width: 2px;
      }

      .cls-2 {
        fill: url(#linear-gradient-13);
      }

      .cls-3 {
        fill: url(#linear-gradient-4);
      }

      .cls-4 {
        fill: url(#linear-gradient-12);
      }

      .cls-5 {
        fill: url(#linear-gradient-14);
      }

      .cls-6 {
        fill: url(#linear-gradient-17);
      }

      .cls-7 {
        fill: url(#linear-gradient-6);
      }

      .cls-8 {
        fill: url(#linear-gradient-19);
      }

      .cls-9 {
        fill: url(#linear-gradient-20);
      }

      .cls-10 {
        fill: url(#linear-gradient);
      }

      .cls-11 {
        fill: url(#linear-gradient-7);
      }

      .cls-12 {
        fill: url(#linear-gradient-3);
      }

      .cls-13 {
        fill: url(#linear-gradient-15);
      }

      .cls-14 {
        fill: url(#linear-gradient-5);
      }

      .cls-15 {
        fill: url(#linear-gradient-9);
      }

      .cls-16 {
        fill: url(#linear-gradient-11);
      }

      .cls-17 {
        fill: url(#linear-gradient-16);
      }

      .cls-18 {
        fill: url(#linear-gradient-18);
      }

      .cls-19 {
        fill: url(#linear-gradient-10);
      }

      .cls-20 {
        fill: url(#linear-gradient-2);
      }
    </style>
    <linearGradient id="linear-gradient" x1="343.1" y1="720.06" x2="340.48" y2="-34.85" gradientUnits="userSpaceOnUse">
      <stop offset="0" stop-color="#6390d5"/>
      <stop offset="0" stop-color="#628fd4"/>
      <stop offset=".16" stop-color="#427db7"/>
      <stop offset=".25" stop-color="#3676ac"/>
      <stop offset=".35" stop-color="#3a4f92"/>
      <stop offset=".45" stop-color="#3d2c7b"/>
      <stop offset=".51" stop-color="#3f2073"/>
      <stop offset=".57" stop-color="#43206c"/>
      <stop offset=".66" stop-color="#502059"/>
      <stop offset=".74" stop-color="#612141"/>
      <stop offset=".78" stop-color="#763252"/>
      <stop offset=".88" stop-color="#a35476"/>
      <stop offset=".96" stop-color="#be6a8c"/>
      <stop offset="1" stop-color="#c97295"/>
    </linearGradient>
    <linearGradient id="linear-gradient-2" x1="332.06" y1="720.1" x2="329.44" y2="-34.81" xlink:href="#linear-gradient"/>
    <linearGradient id="linear-gradient-3" x1="588.19" y1="743.62" x2="585.24" y2="-107.58" xlink:href="#linear-gradient"/>
    <linearGradient id="linear-gradient-4" x1="405.32" y1="719.85" x2="402.7" y2="-35.06" xlink:href="#linear-gradient"/>
    <linearGradient id="linear-gradient-5" x1="263.09" y1="720.34" x2="260.47" y2="-34.57" xlink:href="#linear-gradient"/>
    <linearGradient id="linear-gradient-6" x1="259.58" y1="720.35" x2="256.96" y2="-34.56" xlink:href="#linear-gradient"/>
    <linearGradient id="linear-gradient-7" x1="146.09" y1="720.75" x2="143.47" y2="-34.16" xlink:href="#linear-gradient"/>
    <linearGradient id="linear-gradient-8" x1="184.55" y1="720.61" x2="181.93" y2="-34.3" xlink:href="#linear-gradient"/>
    <linearGradient id="linear-gradient-9" x1="238.9" y1="720.42" x2="236.28" y2="-34.48" xlink:href="#linear-gradient"/>
    <linearGradient id="linear-gradient-10" x1="186.59" y1="720.61" x2="183.97" y2="-34.3" xlink:href="#linear-gradient"/>
    <linearGradient id="linear-gradient-11" x1="350.72" y1="720.04" x2="348.11" y2="-34.87" xlink:href="#linear-gradient"/>
    <linearGradient id="linear-gradient-12" x1="439.06" y1="719.73" x2="436.44" y2="-35.18" xlink:href="#linear-gradient"/>
    <linearGradient id="linear-gradient-13" x1="442.88" y1="719.72" x2="440.26" y2="-35.19" xlink:href="#linear-gradient"/>
    <linearGradient id="linear-gradient-14" x1="555.15" y1="719.33" x2="552.53" y2="-35.58" xlink:href="#linear-gradient"/>
    <linearGradient id="linear-gradient-15" x1="516.59" y1="719.46" x2="513.97" y2="-35.45" xlink:href="#linear-gradient"/>
    <linearGradient id="linear-gradient-16" x1="462.93" y1="719.65" x2="460.31" y2="-35.26" xlink:href="#linear-gradient"/>
    <linearGradient id="linear-gradient-17" x1="514.84" y1="719.47" x2="512.22" y2="-35.44" xlink:href="#linear-gradient"/>
    <linearGradient id="linear-gradient-18" x1="350.89" y1="720.04" x2="348.27" y2="-34.87" xlink:href="#linear-gradient"/>
    <linearGradient id="linear-gradient-19" x1="350.42" y1="720.04" x2="347.8" y2="-34.87" xlink:href="#linear-gradient"/>
    <linearGradient id="linear-gradient-20" x1="350.85" y1="720.04" x2="348.23" y2="-34.87" xlink:href="#linear-gradient"/>
  </defs>
  <g id="Layer_1-2" data-name="Layer 1">
    <g>
      <g>
        <path class="cls-10" d="m654.03,198.01c-23.64-34.67-88.25-114.4-202.21-139.11-110.76-24.02-223.19,13.69-297.4,87.9-106.66,106.66-115.84,270.2-58.32,388.25,47.52,97.54,130.84,144.01,164.88,160.48-121.94-49.07-211.76-157.11-228.75-280.87C11.35,262.69,103.02,155.58,121.62,135.66,199.32,52.38,339.78-9.04,478.45,41.48c97.74,35.6,152.33,113.92,175.58,156.52Z"/>
        <path class="cls-20" d="m660.07,204.52c-20.73-40.45-76.23-127.09-180.83-165.2-62.1-22.62-130.25-24.27-197.11-4.78-61.39,17.9-118.99,53.25-162.18,99.55-18.72,20.05-111.02,127.88-90,280.87,16.65,121.27,102.73,227.54,220.47,278.63-2.87-.73-5.97-1.59-9.24-2.58C127.86,656.92,7.21,531.19,1.23,368.58-3.68,234.92,70.06,108.05,187.16,44.67c114.77-62.12,265.92-60.54,371.8,21.36,58.76,45.45,87.47,103.2,101.11,138.49Z"/>
      </g>
      <g>
        <path class="cls-12" d="m641.07,513.13c-30.27,65.59-97.12,79.57-106.81,159.08,14.34-69.79,97.17-54.14,106.81-159.08Z"/>
        <path class="cls-3" d="m680.7,280.88c-11.07-36.74-27.6-64.09-39.58-81.09,0,0,0,0,0-.01,0,0,0,0-.01-.01-19.05-25.67-53.24-64.25-107.18-93.76-47.93-26.22-90.05-33.56-103.18-35.58-54.9-8.42-99.9.06-125.62,6.93-25.4,7.59-73.68,25.73-119.15,69.17-40.79,38.97-60.92,80.73-70.42,104.81,9.46-16.05,69.36-113.93,192.64-138.8,25.83-5.22,127.43-21.95,215.94,43.65,119.29,88.41,104.98,245.02,102.9,264.27-9.84,91.02-58.56,152.54-79.62,176.31,27.21-18.37,63.64-49.15,89.12-96.13,10.89-20.05,17.2-38.34,20.19-47.87,11.99-38.21,12.63-70.2,13.08-88.05.09-3.54-.18-9.47.1-9.48.58-.03,4.11,24.54,3.47,53.06-.83,36.96-8.28,64.19-10.47,71.8-3.49,12.12-7.26,22.01-10.18,28.99-2.94,7.15-5.02,11.36-5.02,11.36,13.16-21.5,27.44-50.72,36.2-87.12,18.41-76.5,1.18-137.94-3.19-152.44Z"/>
      </g>
      <g>
        <g>
          <polygon class="cls-14" points="289.55 250.14 232.89 216.5 209.87 202.33 232.89 225.35 261.22 252.8 303.72 295.29 312.57 303.26 312.57 230.66 312.57 158.07 303.72 194.37 289.55 250.14"/>
          <path class="cls-7" d="m284.24,235.97c-5.31-27.45,1.77-53.12,19.48-77.02,1.77-3.54,4.43-6.2,6.2-8.85-1.77.89-4.43,1.77-6.2,3.54-15.05,9.74-27.45,27.45-38.07,38.07-9.74,0-21.25-.89-32.76-.89-9.74,0-19.48.89-27.45,4.43,9.74,1.77,18.59,3.54,27.45,6.2,23.02,6.2,38.95,16.82,51.35,34.53Z"/>
          <path class="cls-11" d="m172.69,332.48c5.31,0,9.74,0,15.05.89-5.31-3.54-10.62-7.08-15.05-11.51-10.62-11.51-18.59-25.68-23.91-41.61-1.77-7.97-3.54-15.93-4.43-24.79-7.08,18.59-1.77,43.38-1.77,61.09-12.4,12.39-31.87,26.56-40.73,45.15,17.71-11.51,32.75-20.36,46.92-25.68,7.97-1.77,15.93-3.54,23.91-3.54Z"/>
          <polygon class="cls-1" points="201.9 339.56 172.69 346.64 148.78 353.73 110.71 364.35 148.78 362.58 172.69 362.58 183.31 361.69 232.89 360.81 255.91 359.92 232.89 337.79 203.67 310.34 172.69 280.24 152.32 259.88 172.69 293.52 201.9 339.56"/>
          <path class="cls-15" d="m316.11,319.2l-12.39-8.85-70.83-49.58-60.2-42.5-14.17-10.63,14.17,20.36,60.2,82.34,38.95,54c7.08-15.93,17.71-28.33,31.87-38.07,3.54-2.66,7.97-4.43,12.39-7.08Z"/>
          <path class="cls-19" d="m172.69,386.48l-23.91,4.43-48.9,8.85h48.9l23.91-.89,60.2-.89h31.87c0-10.62,2.66-21.25,6.2-30.99l-38.07,7.08-60.2,12.4Z"/>
        </g>
        <g>
          <path class="cls-16" d="m379.9,318.31c-9.62-3.5-20.08-6.13-30.57-6.19-10.48.06-20.95,2.69-30.57,6.19l30.57-189.52,30.57,189.52Z"/>
          <polygon class="cls-4" points="409.11 250.14 465.77 216.5 488.79 202.33 465.77 225.35 437.44 252.8 394.95 295.29 386.09 303.26 386.09 230.66 386.09 158.07 394.95 194.37 409.11 250.14"/>
          <path class="cls-2" d="m414.42,235.97c5.31-27.45-1.77-53.12-19.48-77.02-1.77-3.54-4.43-6.2-6.2-8.85,1.77.89,4.43,1.77,6.2,3.54,15.05,9.74,27.45,27.45,38.07,38.07,9.74,0,21.25-.89,32.76-.89,9.74,0,19.48.89,27.45,4.43-9.74,1.77-18.59,3.54-27.45,6.2-23.02,6.2-38.95,16.82-51.35,34.53Z"/>
          <path class="cls-5" d="m525.98,332.48c-5.31,0-9.74,0-15.05.89,5.31-3.54,10.62-7.08,15.05-11.51,10.62-11.51,18.59-25.68,23.91-41.61,1.77-7.97,3.54-15.93,4.43-24.79,7.08,18.59,1.77,43.38,1.77,61.09,12.4,12.39,31.87,26.56,40.73,45.15-17.71-11.51-32.75-20.36-46.92-25.68-7.97-1.77-15.93-3.54-23.91-3.54Z"/>
          <polygon class="cls-13" points="496.76 339.56 525.98 346.64 549.88 353.73 587.95 364.35 549.88 362.58 525.98 362.58 515.35 361.69 465.77 360.81 442.76 359.92 465.77 337.79 494.99 310.34 525.98 280.24 546.34 259.88 525.98 293.52 496.76 339.56"/>
          <path class="cls-17" d="m382.55,319.2l12.39-8.85,70.83-49.58,60.2-42.5,14.17-10.63-14.17,20.36-60.2,82.34-38.95,54c-7.08-15.93-17.71-28.33-31.87-38.07-3.54-2.66-7.97-4.43-12.39-7.08Z"/>
          <path class="cls-6" d="m525.98,386.48l23.91,4.43,49.77,8.85h-49.77l-23.91-.89-60.2-.89h-31.87c0-10.62-2.66-21.25-6.2-30.99l38.07,7.08,60.2,12.4Z"/>
        </g>
      </g>
      <path class="cls-18" d="m352.31,498.05c52.56-1.32,87.09-44.75,85.04-83h-7.21c-1.1,20.22-8.04,37.82-22.97,52.3-15.14,14.68-33.53,22.2-54.98,23.03-17.6.68-33.81-4.03-48.06-13.63-22.2-14.97-33.26-36.02-34.51-62.11-2.98.15-5.21.27-7.38.38-.82,43.19,37.7,84.35,90.06,83.04Z"/>
      <circle class="cls-8" cx="349.33" cy="406.17" r="60.58"/>
      <path class="cls-9" d="m462.37,406.3c-3.58,74.08-63.12,110.28-108.59,111.05-25.11.42-48.11-6.05-68.35-20.56-30.72-22.01-45.9-52.82-47.46-90.63H99.88c4.26,95.98,45.11,170.69,129.05,216.94,88.79,48.91,178.61,44.04,262.5-12.67,71.18-48.11,105.59-118.07,108.22-204.13h-137.27Zm-140.7,175.37c71.4,11.1,125.23-23,169.73-75.54-20.83,43.36-85.08,88.32-157.79,82.95-78.74-5.8-139.09-62.11-154.77-126.77,27.75,63.56,72.48,108.41,142.83,119.36Zm5.63,23.95c84.93,9.8,146.42-33.44,197.03-97.54-28.3,58.83-105.83,115.02-200.28,104.28-95.17-10.82-157.74-86.49-169.72-142.76,34.86,74.35,88.81,126.31,172.96,136.01Zm-2.08,29.61c-104.68-11.21-178.34-89.99-195.08-166.67,6.44,12.87,12.56,27.67,20.8,41.17,34.08,55.85,81.58,95.15,145.27,112.64,40.34,11.08,80.79,9.48,120.48-4.15,52.7-18.11,93.75-51.88,127.29-95.57,1.81-2.35,3.63-4.72,6.53-8.5-32.84,69.34-119.7,132.39-225.29,121.08Z"/>
    </g>
  </g>
</svg>