<?xml version="1.0" encoding="UTF-8"?>
<svg id="Layer_2" data-name="Layer 2" xmlns="http://www.w3.org/2000/svg" xmlns:xlink="http://www.w3.org/1999/xlink" viewBox="0 0 576.67 605.29">
  <defs>
    <style>
      .cls-1 {
        fill: url(#linear-gradient-2);
      }

      .cls-2 {
        fill: url(#linear-gradient);
      }
    </style>
    <linearGradient id="linear-gradient" x1="472.64" y1="676.71" x2="469.69" y2="-174.5" gradientUnits="userSpaceOnUse">
      <stop offset="0" stop-color="#6390d5"/>
      <stop offset="0" stop-color="#628fd4"/>
      <stop offset=".16" stop-color="#427db7"/>
      <stop offset=".25" stop-color="#3676ac"/>
      <stop offset=".35" stop-color="#3a4f92"/>
      <stop offset=".45" stop-color="#3d2c7b"/>
      <stop offset=".51" stop-color="#3f2073"/>
      <stop offset=".57" stop-color="#43206c"/>
      <stop offset=".66" stop-color="#502059"/>
      <stop offset=".74" stop-color="#612141"/>
      <stop offset=".78" stop-color="#763252"/>
      <stop offset=".88" stop-color="#a35476"/>
      <stop offset=".96" stop-color="#be6a8c"/>
      <stop offset="1" stop-color="#c97295"/>
    </linearGradient>
    <linearGradient id="linear-gradient-2" x1="289.77" y1="652.93" x2="287.15" y2="-101.98" xlink:href="#linear-gradient"/>
  </defs>
  <g id="Layer_1-2" data-name="Layer 1">
    <path class="cls-2" d="m525.52,446.22c-30.27,65.59-97.12,79.57-106.81,159.08,14.34-69.79,97.17-54.14,106.81-159.08Z"/>
    <path class="cls-1" d="m565.15,213.97c-11.07-36.74-27.6-64.09-39.58-81.09,0,0,0,0,0-.01,0,0,0,0-.01-.01-19.05-25.67-53.24-64.25-107.18-93.76C370.44,12.88,328.32,5.53,315.19,3.52c-54.9-8.42-99.9.06-125.62,6.93-25.4,7.59-73.68,25.73-119.15,69.17C29.62,118.59,9.5,160.34,0,184.43c9.46-16.05,69.36-113.93,192.64-138.8,25.83-5.22,127.43-21.95,215.94,43.65,119.29,88.41,104.98,245.02,102.9,264.27-9.84,91.02-58.56,152.54-79.62,176.31,27.21-18.37,63.64-49.15,89.12-96.13,10.89-20.05,17.2-38.34,20.19-47.87,11.99-38.21,12.63-70.2,13.08-88.05.09-3.54-.18-9.47.1-9.48.58-.03,4.11,24.54,3.47,53.06-.83,36.96-8.28,64.19-10.47,71.8-3.49,12.12-7.26,22.01-10.18,28.99-2.94,7.15-5.02,11.36-5.02,11.36,13.16-21.5,27.44-50.72,36.2-87.12,18.41-76.5,1.18-137.94-3.19-152.44Z"/>
  </g>
</svg>