<svg xmlns="http://www.w3.org/2000/svg" version="1.1" xmlns:xlink="http://www.w3.org/1999/xlink" xmlns:svgjs="http://svgjs.dev/svgjs" viewBox="0 0 800 800"><defs><symbol id="bbburst-shape-1" viewBox="0 0 194 167"><path d="m97 0 96.129 166.5H.871L97 0Z"></path></symbol><symbol id="bbburst-shape-4" viewBox="0 0 149 143"><path d="M71.647 2.781c.898-2.764 4.808-2.764 5.706 0l15.445 47.534a3 3 0 0 0 2.853 2.073h49.98c2.906 0 4.115 3.719 1.764 5.427L106.96 87.193a2.999 2.999 0 0 0-1.09 3.354l15.445 47.534c.898 2.764-2.266 5.062-4.617 3.354l-40.435-29.378a3 3 0 0 0-3.526 0l-40.435 29.378c-2.351 1.708-5.515-.59-4.617-3.354L43.13 90.547a3 3 0 0 0-1.09-3.354L1.605 57.815c-2.35-1.708-1.142-5.427 1.764-5.427h49.98a3 3 0 0 0 2.853-2.073L71.647 2.781Z"></path></symbol><symbol id="bbburst-shape-5" viewBox="0 0 145 145"><circle cx="72.5" cy="72.5" r="72.5"></circle></symbol><symbol id="bbburst-shape-8" viewBox="0 0 87 168"><path d="m12 12 31.2546 18.0749c16.4102 9.4902 20.014 31.6325 7.4603 45.8369L36.3296 92.1884c-12.5684 14.2206-8.9394 36.3916 7.5068 45.8636L75 156" stroke-width="14" stroke-linecap="round" stroke-linejoin="round"></path></symbol><symbol id="bbburst-shape-10" viewBox="0 0 145 145"><circle cx="72.5" cy="72.5" r="61.5" fill="none" stroke-width="22"></circle></symbol></defs><use xlink:href="#bbburst-shape-8" width="10.806249736651292" opacity="0.9427367945398241" transform="matrix(0.7231304542058731,0.6907114782599227,-0.6907114782599227,0.7231304542058731,1054.9168972017706,452.4795490753728)" fill="none" stroke="#ffa6d5"></use><use xlink:href="#bbburst-shape-1" width="48.205283030034344" opacity="0.323174369839642" transform="matrix(0.95717093021346,0.2895234193537713,-0.2895234193537713,0.95717093021346,244.17479161128824,216.61346740648605)" fill="#00a19d"></use><use xlink:href="#bbburst-shape-8" width="23.66046018178341" opacity="0.7254403823189067" transform="matrix(0.8948228629618731,-0.446421374847483,0.446421374847483,0.8948228629618731,505.7355810487768,193.70887069247533)" fill="none" stroke="#ff5c58"></use><use xlink:href="#bbburst-shape-10" width="26.263177344681313" opacity="0.7796065726307108" transform="matrix(0.9359059396428987,0.3522500136850854,-0.3522500136850854,0.9359059396428987,890.227181049922,203.9866399512204)" fill="none" stroke="#ffa6d5"></use><use xlink:href="#bbburst-shape-4" width="17.90064282841317" opacity="0.7492754074678729" transform="matrix(0.9949199227777092,0.10066949518099864,-0.10066949518099864,0.9949199227777092,581.8964078851396,376.04542387735177)" fill="#ff5c58"></use><use xlink:href="#bbburst-shape-4" width="44.4547422700283" opacity="0.5027206570475965" transform="matrix(0.9991287039142278,-0.04173527302744269,0.04173527302744269,0.9991287039142278,266.5586231963721,349.20067532385366)" fill="#2c2891"></use><use xlink:href="#bbburst-shape-10" width="28.76607102005372" opacity="0.6386936332029134" transform="matrix(0.8257622487502424,0.5640183583350304,-0.5640183583350304,0.8257622487502424,669.8775865058844,350.6434173440547)" fill="none" stroke="#ffa6d5"></use><use xlink:href="#bbburst-shape-1" width="53.09011369390002" opacity="0.42592086572225074" transform="matrix(0.7563000255657034,0.6542249393972355,-0.6542249393972355,0.7563000255657034,846.0447899312574,-59.59118787761355)" fill="#ffbd9b"></use><use xlink:href="#bbburst-shape-8" width="20.037582527612212" opacity="0.7782477206240772" transform="matrix(0.7594180965329219,-0.6506029162694505,0.6506029162694505,0.7594180965329219,321.0861708887983,434.7365159134551)" fill="none" stroke="#2c2891"></use><use xlink:href="#bbburst-shape-10" width="29.684139939699342" opacity="0.662681553155827" transform="matrix(0.9011942790622429,-0.4334153566562729,0.4334153566562729,0.9011942790622429,321.0518414400961,277.43463016984776)" fill="none" stroke="#ffbd9b"></use><use xlink:href="#bbburst-shape-10" width="45.26021959286148" opacity="0.3680183408729435" transform="matrix(0.8742682530213247,-0.485443118973831,0.485443118973831,0.8742682530213247,231.11085273048536,-61.62470242422273)" fill="none" stroke="#00a19d"></use><use xlink:href="#bbburst-shape-5" width="21.06583085720227" opacity="0.7306724587393623" transform="matrix(0.9815913407805733,0.19099329753841227,-0.19099329753841227,0.9815913407805733,712.9046037440547,183.80883103936094)" fill="#ffbd9b"></use><use xlink:href="#bbburst-shape-10" width="14.064518070346391" opacity="0.9120597493793383" transform="matrix(0.9845369758693241,-0.175176891016155,0.175176891016155,0.9845369758693241,702.1134280713923,321.99462165135174)" fill="none" stroke="#00a19d"></use><use xlink:href="#bbburst-shape-10" width="21.60528170184608" opacity="0.8655898609032247" transform="matrix(0.7807179697087231,0.6248835505707357,-0.6248835505707357,0.7807179697087231,982.3501506756411,360.27663072660187)" fill="none" stroke="#ff5c58"></use><use xlink:href="#bbburst-shape-8" width="51.54857128232369" opacity="0.4495673620535976" transform="matrix(0.9056936006045043,-0.4239328977846005,0.4239328977846005,0.9056936006045043,90.68375820894676,258.1034125234296)" fill="none" stroke="#ff5c58"></use><use xlink:href="#bbburst-shape-5" width="33.90173764323632" opacity="0.6534575334381911" transform="matrix(0.8388525971247358,0.5443586320589447,-0.5443586320589447,0.8388525971247358,890.8372551728512,127.52237900176277)" fill="#00a19d"></use><use xlink:href="#bbburst-shape-10" width="14.233234537366528" opacity="0.8692039737103816" transform="matrix(0.8407140096850364,-0.5414794122765043,0.5414794122765043,0.8407140096850364,461.57387575649835,406.8548371277607)" fill="none" stroke="#00a19d"></use><use xlink:href="#bbburst-shape-4" width="66.4868986208552" opacity="0.004028296309454227" transform="matrix(0.9798281088865864,-0.1998421302822199,0.1998421302822199,0.9798281088865864,-17.128344130924972,-289.1145394548406)" fill="#2c2891"></use><use xlink:href="#bbburst-shape-8" width="7.740565140951506" opacity="0.9657570148452357" transform="matrix(0.9906574855756576,-0.1363735541551797,0.1363735541551797,0.9906574855756576,727.5800725134623,373.03083762729756)" fill="none" stroke="#00a19d"></use><use xlink:href="#bbburst-shape-5" width="11.746730457178298" opacity="0.9044431343494905" transform="matrix(0.811422202815031,-0.5844604424414048,0.5844604424414048,0.811422202815031,480.62099420145046,427.8954274328292)" fill="#00a19d"></use><use xlink:href="#bbburst-shape-8" width="8.771390828848755" opacity="0.9656237917619923" transform="matrix(0.9999999507548137,-0.00031383175431846477,0.00031383175431846477,0.9999999507548137,762.4264297693479,390.5883770145416)" fill="none" stroke="#00a19d"></use><use xlink:href="#bbburst-shape-4" width="39.99122402717569" opacity="0.1948962241783484" transform="matrix(0.7418052104846008,0.6706154111693953,-0.6706154111693953,0.7418052104846008,745.2240705401239,-253.89653491736323)" fill="#00a19d"></use><use xlink:href="#bbburst-shape-10" width="13.99812421646123" opacity="0.8768111796394402" transform="matrix(0.9970040448661994,-0.07734943128709709,0.07734943128709709,0.9970040448661994,744.374570104466,279.83024958578767)" fill="none" stroke="#ffbd9b"></use><use xlink:href="#bbburst-shape-1" width="43.28906688475011" opacity="0.424878009672208" transform="matrix(0.7153758286826652,0.6987398827436359,-0.6987398827436359,0.7153758286826652,1012.8656896524993,-74.08103608203828)" fill="#00a19d"></use><use xlink:href="#bbburst-shape-10" width="13.566332612542976" opacity="0.8721756190897566" transform="matrix(0.8916712239886432,-0.45268358520118096,0.45268358520118096,0.8916712239886432,526.358950860198,352.30915320781224)" fill="none" stroke="#2c2891"></use><use xlink:href="#bbburst-shape-4" width="24.01021635208951" opacity="0.7719182731328156" transform="matrix(0.8696812645095662,0.49361371350585664,-0.49361371350585664,0.8696812645095662,825.9969179730306,284.6619136467585)" fill="#ffa6d5"></use><use xlink:href="#bbburst-shape-8" width="18.271334576989506" opacity="0.832017182817093" transform="matrix(0.9943965232538837,-0.10571449541377155,0.10571449541377155,0.9943965232538837,592.9211857349152,340.17483291271157)" fill="none" stroke="#ffa6d5"></use><use xlink:href="#bbburst-shape-8" width="13.132716229850274" opacity="0.9301804997522746" transform="matrix(0.9322744002924257,0.3617519074716787,-0.3617519074716787,0.9322744002924257,870.5389489378985,409.0528334188706)" fill="none" stroke="#2c2891"></use><use xlink:href="#bbburst-shape-5" width="17.560888756817484" opacity="0.8602940519986517" transform="matrix(0.8417118179562221,-0.5399270464727913,0.5399270464727913,0.8417118179562221,438.352224481435,448.19068505732866)" fill="#00a19d"></use><use xlink:href="#bbburst-shape-4" width="29.20406372096481" opacity="0.711374990553547" transform="matrix(0.8049618652116074,0.5933265505226023,-0.5933265505226023,0.8049618652116074,991.531813494825,182.76082416518466)" fill="#00a19d"></use><use xlink:href="#bbburst-shape-4" width="43.01206124894571" opacity="0.555569812351269" transform="matrix(0.9634257158910188,0.2679755398536926,-0.2679755398536926,0.9634257158910188,730.7343228647994,-7.350063993638628)" fill="#ffa6d5"></use><use xlink:href="#bbburst-shape-4" width="18.005473378096546" opacity="0.8123061089240563" transform="matrix(0.712838110899534,-0.701328616020467,0.701328616020467,0.712838110899534,326.59206508379145,499.7946675475407)" fill="#ffbd9b"></use><use xlink:href="#bbburst-shape-10" width="30.285355543457094" opacity="0.67725833829877" transform="matrix(0.8473894472323594,0.530971868105304,-0.530971868105304,0.8473894472323594,773.4682163605431,222.686619339654)" fill="none" stroke="#ffa6d5"></use><use xlink:href="#bbburst-shape-4" width="43.05346667974163" opacity="0.5295774921428231" transform="matrix(0.9696642969802667,-0.2444404859301446,0.2444404859301446,0.9696642969802667,618.7849422747356,-48.807947691682955)" fill="#ff5c58"></use><use xlink:href="#bbburst-shape-1" width="55.072285137848354" opacity="0.38371533055089213" transform="matrix(0.9108329173918766,0.4127752373815598,-0.4127752373815598,0.9108329173918766,502.4578743264261,-9.643638898745053)" fill="#2c2891"></use><use xlink:href="#bbburst-shape-5" width="24.88363815356492" opacity="0.791984388416622" transform="matrix(0.9156862866147142,-0.401893797545764,0.401893797545764,0.9156862866147142,449.1825454903528,332.1962238403086)" fill="#00a19d"></use><use xlink:href="#bbburst-shape-10" width="22.450944026963533" opacity="0.8321947081279079" transform="matrix(0.9100293513857513,0.4145438211051141,-0.4145438211051141,0.9100293513857513,927.0680394343264,265.9732890931695)" fill="none" stroke="#2c2891"></use><use xlink:href="#bbburst-shape-1" width="36.91713589398267" opacity="0.40954109493778534" transform="matrix(0.7739810912161311,-0.6332087100158106,0.6332087100158106,0.7739810912161311,-53.61312282029951,430.2996732774959)" fill="#00a19d"></use><use xlink:href="#bbburst-shape-5" width="61.87886300680748" opacity="0.11339342129340135" transform="matrix(0.973128076049593,-0.23026451659779804,0.23026451659779804,0.973128076049593,-41.44844719586986,-100.56002087168895)" fill="#ffbd9b"></use><use xlink:href="#bbburst-shape-8" width="35.117466148241405" opacity="0.2460288625509125" transform="matrix(0.9990156402143338,-0.04435933506202328,0.04435933506202328,0.9990156402143338,669.2207355261104,-346.72664272382417)" fill="none" stroke="#2c2891"></use><use xlink:href="#bbburst-shape-8" width="41.993919785856356" opacity="0.3408327674264777" transform="matrix(0.9820897543787975,0.1884136787608403,-0.1884136787608403,0.9820897543787975,271.855025406487,95.40736487211592)" fill="none" stroke="#00a19d"></use><use xlink:href="#bbburst-shape-4" width="29.489611492491232" opacity="0.7324867631311418" transform="matrix(0.759222259633808,0.6508314378366603,-0.6508314378366603,0.759222259633808,825.840392053614,339.39421606144106)" fill="#00a19d"></use><use xlink:href="#bbburst-shape-1" width="34.50109152602187" opacity="0.2916519318592795" transform="matrix(0.9679236154866794,0.2512446508548884,-0.2512446508548884,0.9679236154866794,176.99839537129733,361.5996315155061)" fill="#2c2891"></use><use xlink:href="#bbburst-shape-1" width="31.295100930252474" opacity="0.5506559166276268" transform="matrix(0.9993283221783192,-0.036645661302062246,0.036645661302062246,0.9993283221783192,337.64657939033873,277.453798117114)" fill="#ffbd9b"></use><use xlink:href="#bbburst-shape-4" width="54.5114915189022" opacity="0.11200800843727521" transform="matrix(0.9364126212962867,-0.35090084450884024,0.35090084450884024,0.9364126212962867,124.99140461154545,-292.48692846129154)" fill="#ffa6d5"></use><use xlink:href="#bbburst-shape-4" width="14.176213818115594" opacity="0.9155444120900784" transform="matrix(0.8447596499985933,-0.5351458994837334,0.5351458994837334,0.8447596499985933,528.3031073860103,399.08527042970104)" fill="#ffa6d5"></use><use xlink:href="#bbburst-shape-4" width="45.24011069119344" opacity="0.6207147286081898" transform="matrix(0.8953221007358615,0.44541928105317125,-0.44541928105317125,0.8953221007358615,749.45802988929,114.95638627424819)" fill="#ffbd9b"></use><use xlink:href="#bbburst-shape-4" width="52.83941165792169" opacity="0.1970449100025543" transform="matrix(0.9096371191487594,0.4154037932743821,-0.4154037932743821,0.9096371191487594,209.7206802279091,96.05745538338238)" fill="#00a19d"></use><use xlink:href="#bbburst-shape-10" width="56.871882458509845" opacity="0.2169881540823111" transform="matrix(0.9977047988288548,0.06771362044577448,-0.06771362044577448,0.9977047988288548,275.40204395912417,-183.4602841075344)" fill="none" stroke="#2c2891"></use><use xlink:href="#bbburst-shape-5" width="37.46069081068597" opacity="0.5957717108946152" transform="matrix(0.9969431235489169,0.07813071360565567,-0.07813071360565567,0.9969431235489169,410.16264565495635,361.5306754150529)" fill="#00a19d"></use><use xlink:href="#bbburst-shape-8" width="15.084894252491216" opacity="0.8977794744209517" transform="matrix(0.717595916237419,0.6964596908647184,-0.6964596908647184,0.717595916237419,972.5759222940231,489.5543884915178)" fill="none" stroke="#00a19d"></use><use xlink:href="#bbburst-shape-5" width="11.058335517120012" opacity="0.9455821857503017" transform="matrix(0.9141697276904189,0.40533160372024435,-0.40533160372024435,0.9141697276904189,912.1868572007852,401.33255110825763)" fill="#00a19d"></use><use xlink:href="#bbburst-shape-4" width="69.0854219908243" opacity="0.26752263608056237" transform="matrix(0.883086035703469,0.4692110969974298,-0.4692110969974298,0.883086035703469,371.2535145047474,-8.986181831981128)" fill="#ffa6d5"></use><use xlink:href="#bbburst-shape-4" width="29.898111697593155" opacity="0.5975864577627725" transform="matrix(0.9750200837990676,-0.22211671748983516,0.22211671748983516,0.9750200837990676,383.53033705592594,160.4866091466181)" fill="#00a19d"></use><use xlink:href="#bbburst-shape-4" width="44.61097028137456" opacity="0.5228121313967907" transform="matrix(0.7079665235254626,0.7062459922486432,-0.7062459922486432,0.7079665235254626,736.017689296456,157.03670793262535)" fill="#2c2891"></use><use xlink:href="#bbburst-shape-10" width="7.582970281072299" opacity="0.9860148633645766" transform="matrix(0.753853824745887,-0.6570421682936319,0.6570421682936319,0.753853824745887,524.9470403265082,490.5746616004376)" fill="none" stroke="#ffbd9b"></use><use xlink:href="#bbburst-shape-10" width="19.755159088290743" opacity="0.8305285146022995" transform="matrix(0.9594349795863919,-0.2819299912142372,0.2819299912142372,0.9594349795863919,553.0761564276787,304.22082743711917)" fill="none" stroke="#ffbd9b"></use><use xlink:href="#bbburst-shape-5" width="35.997801516770345" opacity="0.3345033309657085" transform="matrix(0.9974633201051268,-0.07118233660717592,0.07118233660717592,0.9974633201051268,624.1870289881626,-250.50185276273584)" fill="#ffa6d5"></use><use xlink:href="#bbburst-shape-10" width="45.04201248118969" opacity="0.5541899929575245" transform="matrix(0.767090922965687,-0.641538397840418,0.641538397840418,0.767090922965687,131.54242960293794,300.09350328405975)" fill="none" stroke="#ffa6d5"></use><use xlink:href="#bbburst-shape-5" width="31.182102792525757" opacity="0.7174021967068546" transform="matrix(0.9722863876772703,-0.23379302884706585,0.23379302884706585,0.9722863876772703,422.9750162169363,326.12785768948163)" fill="#ff5c58"></use><use xlink:href="#bbburst-shape-5" width="50.811696370434596" opacity="0.45361344092322586" transform="matrix(0.7768863341024587,-0.6296408689759925,0.6296408689759925,0.7768863341024587,77.47158299947574,196.7031370710473)" fill="#ffa6d5"></use><use xlink:href="#bbburst-shape-1" width="33.30512434177336" opacity="0.6228835512181442" transform="matrix(0.8007533489533492,-0.598994218786789,0.598994218786789,0.8007533489533492,505.4174948564004,114.9012796915128)" fill="#ffa6d5"></use><use xlink:href="#bbburst-shape-4" width="44.76261989697992" opacity="0.23080442982484928" transform="matrix(0.8204477042918853,0.57172157954915,-0.57172157954915,0.8204477042918853,255.42414867662865,311.34151562067296)" fill="#ffa6d5"></use><use xlink:href="#bbburst-shape-4" width="52.637099599483136" opacity="0.29238205924167904" transform="matrix(0.7578537993960264,-0.652424416113474,0.652424416113474,0.7578537993960264,201.90772923473122,-118.47076409365121)" fill="#2c2891"></use><use xlink:href="#bbburst-shape-1" width="24.151000946523634" opacity="0.8059290032371015" transform="matrix(0.7708478412203519,0.637019313432429,-0.637019313432429,0.7708478412203519,952.4024723626594,313.698038387012)" fill="#00a19d"></use><use xlink:href="#bbburst-shape-1" width="26.714152474454202" opacity="0.6773155626222126" transform="matrix(0.8059156559253744,0.5920303670711271,-0.5920303670711271,0.8059156559253744,705.1061218168368,436.06424010875816)" fill="#ff5c58"></use><use xlink:href="#bbburst-shape-4" width="47.13323678897489" opacity="0.49656124926081013" transform="matrix(0.8782660312886741,-0.47817233115733687,0.47817233115733687,0.8782660312886741,321.9945261862432,32.6090767616094)" fill="#00a19d"></use></svg>